<svg width="700.0000000000002" height="700.0000000000002" xmlns="http://www.w3.org/2000/svg">
 <g stroke="null">
  <title>background</title>
  <rect stroke="null" fill="none" id="canvas_background" height="702" width="702" y="-1" x="-1"/>
 </g>

 <g stroke="null">
  <title>Layer 1</title>
  <path stroke="#000" fill="#fff" opacity="NaN" id="svg_2"/>
  <line stroke="#000" fill="none" stroke-width="3" x1="20" y1="483.666972" x2="20" y2="686.499992" id="svg_32"/>
  <line stroke="#000" fill="none" stroke-width="3" x1="20" y1="685" x2="650" y2="685" id="svg_33"/>
  <line stroke="#000" fill="none" stroke-width="3" x1="18.750003" y1="485" x2="451.750003" y2="485" id="svg_44"/>
  <line stroke="#000" fill="none" stroke-width="3" x1="450" y1="59.24995" x2="450" y2="485.999814" id="svg_57"/>
  <line stroke="#000" fill="none" stroke-width="3" x1="448.834537" y1="60.416547" x2="651.416418" y2="60.416547" id="svg_58"/>
  <line stroke="#000" fill="none" stroke-width="3" x1="650.000123" y1="59.749939" x2="650.000123" y2="686.502674" id="svg_59"/>
  <text style="cursor: move;" stroke="#000" fill="#000000" stroke-width="0" x="166.931185" y="249.399996" id="svg_1" font-size="36" font-family="Helvetica, Arial, sans-serif" text-anchor="start" xml:space="preserve">Корпус 4</text>
  <text style="cursor: move;" stroke="#000" fill="#000000" stroke-width="0" x="181.956183" y="306.399984" id="svg_4" font-size="36" font-family="Helvetica, Arial, sans-serif" text-anchor="start" xml:space="preserve" font-weight="normal" font-style="normal">Этаж 4</text>
  <line stroke="#000" stroke-linecap="null" stroke-linejoin="null" id="svg_204" y2="631.999893" x2="300" y1="484.99997" x1="300" fill-opacity="null" stroke-opacity="null" stroke-width="3" fill="none"/>
  <line stroke-linecap="null" stroke-linejoin="null" id="svg_205" y2="600.249933" x2="55" y1="600.249933" x1="20.048318" fill-opacity="null" stroke-opacity="null" stroke-width="3" stroke="#000" fill="none"/>
  <line stroke-linecap="null" stroke-linejoin="null" id="svg_206" y2="560.00011" x2="65.048549" y1="560.00011" x1="20.048318" fill-opacity="null" stroke-opacity="null" stroke-width="3" stroke="#000" fill="none"/>
  <path id="svg_207" d="m26.482264,659.447678c1.95111,-0.011999 3.90222,-0.024 5.85333,-0.035998c0.012846,-1.897937 0.02569,-3.795875 0.038536,-5.69381c1.941789,0 3.883579,0 5.825369,0c0,-1.909582 0,-3.819163 0,-5.728744c1.991515,0 3.983029,0 5.974544,0c0,-1.863006 0,-3.726011 0,-5.589017c1.966927,0 3.933854,0 5.900783,0c0,-1.863005 0,-3.726011 0,-5.589017c2.925806,0 5.851611,0 8.777417,0c0,0.931503 0,1.863006 0,2.794509c-1.942345,0 -3.884682,0 -5.827027,0c0,1.886293 0,3.772586 0,5.65888c-1.966926,0 -3.933853,0 -5.900783,0c0,1.886294 0,3.772587 0,5.65888c-1.966929,0 -3.933854,0 -5.900783,0c0,1.886293 0,3.772587 0,5.658877c-1.991515,0 -3.98303,0 -5.974543,0c0,1.909583 0,3.819163 0,5.728743c-2.950393,0 -5.900784,0 -8.851176,0c0.131529,-0.92568 -0.224227,-1.969486 0.084333,-2.863302l0,-0.000001z" fill-opacity="null" stroke-opacity="null" stroke-width="3" stroke="#000" fill="none"/>
  <line stroke="#000" stroke-linecap="null" stroke-linejoin="null" id="svg_208" y2="630.401859" x2="220" y1="630.401859" x1="75" fill-opacity="null" stroke-opacity="null" stroke-width="3" fill="none"/>
  <line stroke-linecap="null" stroke-linejoin="null" id="svg_209" y2="675" x2="65.298529" y1="495" x1="65.298529" fill-opacity="null" stroke-opacity="null" stroke-width="3" stroke="#000" fill="none"/>
  <line stroke="#000" stroke-linecap="null" stroke-linejoin="null" id="svg_212" y2="632.249897" x2="230" y1="484.99997" x1="230" fill-opacity="null" stroke-opacity="null" stroke-width="3" fill="none"/>
  <line stroke="#000" stroke-linecap="null" stroke-linejoin="null" id="svg_213" y2="632.00169" x2="139.998945" y1="484.99997" x1="139.998945" fill-opacity="null" stroke-opacity="null" stroke-width="3" fill="none"/>
  <line stroke="#000" stroke-linecap="null" stroke-linejoin="null" id="svg_218" y2="630.401859" x2="380" y1="630.401859" x1="240" fill-opacity="null" stroke-opacity="null" stroke-width="3" fill="none"/>
  <line stroke="#000" stroke-linecap="null" stroke-linejoin="null" id="svg_219" y2="631.999893" x2="389.999957" y1="484.99997" x1="389.999957" fill-opacity="null" stroke-opacity="null" stroke-width="3" fill="none"/>
  <line stroke="#000" stroke-linecap="null" stroke-linejoin="null" id="svg_220" y2="610" x2="439.999933" y1="484.99997" x1="439.999933" fill-opacity="null" stroke-opacity="null" stroke-width="3" fill="none"/>
  <path id="svg_221" d="m398.482087,539.447511c1.95111,-0.011999 3.902219,-0.024 5.85333,-0.035998c0.012846,-1.897937 0.02569,-3.795875 0.038535,-5.69381c1.941789,0 3.88358,0 5.82537,0c0,-1.909581 0,-3.819163 0,-5.728743c1.991515,0 3.983028,0 5.974544,0c0,-1.863006 0,-3.726012 0,-5.589017c1.966927,0 3.933854,0 5.900783,0c0,-1.863005 0,-3.726012 0,-5.589018c2.925805,0 5.851611,0 8.777417,0c0,0.931503 0,1.863006 0,2.794509c-1.942345,0 -3.884683,0 -5.827027,0c0,1.886293 0,3.772586 0,5.65888c-1.966926,0 -3.933853,0 -5.900783,0c0,1.886294 0,3.772588 0,5.658881c-1.966929,0 -3.933854,0 -5.900783,0c0,1.886293 0,3.772587 0,5.658877c-1.991516,0 -3.98303,0 -5.974543,0c0,1.909582 0,3.819163 0,5.728742c-2.950393,0 -5.900784,0 -8.851176,0c0.131529,-0.925679 -0.224227,-1.969486 0.084333,-2.863302l0,-0.000001z" fill-opacity="null" stroke-opacity="null" stroke-width="3" stroke="#000" fill="none"/>
  <line stroke="#000" stroke-linecap="null" stroke-linejoin="null" id="svg_222" y2="570.099699" x2="500" y1="570.099699" x1="400" fill-opacity="null" stroke-opacity="null" stroke-width="3" fill="none"/>
  <line stroke="#000" stroke-linecap="null" stroke-linejoin="null" id="svg_224" y2="629.901859" x2="500" y1="629.901859" x1="438" fill-opacity="null" stroke-opacity="null" stroke-width="3" fill="none"/>
  <line stroke="#000" stroke-linecap="null" stroke-linejoin="null" id="svg_228" y2="599.901874" x2="500.5" y1="599.901874" x1="438.5" fill-opacity="null" stroke-opacity="null" stroke-width="3" fill="none"/>
  <line stroke="#000" stroke-linecap="null" stroke-linejoin="null" id="svg_229" y2="630.999995" x2="499.999905" y1="568.499931" x1="499.999905" fill-opacity="null" stroke-opacity="null" stroke-width="3" fill="none"/>
  <line stroke="#000" stroke-linecap="null" stroke-linejoin="null" id="svg_230" y2="599.099686" x2="470.399747" y1="569.099703" x1="470.399747" fill-opacity="null" stroke-opacity="null" stroke-width="3" fill="none"/>
  <text xml:space="preserve" text-anchor="start" font-family="Helvetica, Arial, sans-serif" font-size="22" id="svg_231" y="621.599672" x="443.899762" fill-opacity="null" stroke-opacity="null" stroke-width="0" stroke="#000" fill="#000000">лифт</text>
  <path stroke="#000" transform="rotate(-90 455.52218627929693,584.6057739257812) " id="svg_234" d="m451.190557,579.105782l-5.918347,5.500482l5.918896,5.499458l2.152838,-2.000085l-3.767106,-3.499374l3.766323,-3.499377l-2.152604,-2.001105l0,0.000001zm8.661958,0l-2.151278,2.000597l3.766336,3.499372l-3.766336,3.498946l2.151278,2.000075l5.919685,-5.499962l-5.919685,-5.499029z" fill-opacity="null" stroke-opacity="null" stroke-width="3" fill="none"/>
  <path stroke="#000" transform="rotate(-90 485.52218627929693,584.6057739257812) " id="svg_235" d="m481.190543,579.105782l-5.918347,5.500482l5.918896,5.499458l2.152838,-2.000085l-3.767106,-3.499374l3.766323,-3.499376l-2.152604,-2.001105l0,0zm8.661958,0l-2.151278,2.000598l3.766336,3.499372l-3.766336,3.498946l2.151278,2.000075l5.919685,-5.499962l-5.919685,-5.499029z" fill-opacity="null" stroke-opacity="null" stroke-width="3" fill="none"/>
  <line stroke="#000" stroke-linecap="null" stroke-linejoin="null" id="svg_236" y2="569.000019" x2="484.999912" y1="484.99997" x1="484.999912" fill-opacity="null" stroke-opacity="null" stroke-width="3" fill="none"/>
  <line stroke="#000" stroke-linecap="null" stroke-linejoin="null" id="svg_237" y2="631.999893" x2="574.999869" y1="450" x1="574.999869" fill-opacity="null" stroke-opacity="null" stroke-width="3" fill="none"/>
  <line stroke="#000" stroke-linecap="null" stroke-linejoin="null" id="svg_238" y2="485" x2="576.499964" y1="485" x1="460" fill-opacity="null" stroke-opacity="null" stroke-width="3" fill="none"/>
  <line stroke="#000" stroke-linecap="null" stroke-linejoin="null" id="svg_239" y2="569.000019" x2="529.99989" y1="484.99997" x1="529.99989" fill-opacity="null" stroke-opacity="null" stroke-width="3" fill="none"/>
  <line stroke="#000" stroke-linecap="null" stroke-linejoin="null" id="svg_240" y2="570.099699" x2="565" y1="570.099699" x1="510" fill-opacity="null" stroke-opacity="null" stroke-width="3" fill="none"/>
  <text xml:space="preserve" text-anchor="start" font-family="Helvetica, Arial, sans-serif" font-size="22" id="svg_241" y="535.599718" x="498.399731" fill-opacity="null" stroke-opacity="null" stroke-width="0" stroke="#000" fill="#000000">Ж</text>
  <text xml:space="preserve" text-anchor="start" font-family="Helvetica, Arial, sans-serif" font-size="22" id="svg_242" y="535.599718" x="543.39971" fill-opacity="null" stroke-opacity="null" stroke-width="0" stroke="#000" fill="#000000">М</text>
  <line stroke="#000" stroke-linecap="null" stroke-linejoin="null" id="svg_243" y2="485" x2="651.499934" y1="485" x1="604.99991" fill-opacity="null" stroke-opacity="null" stroke-width="3" fill="none"/>
  <line stroke="#000" stroke-linecap="null" stroke-linejoin="null" id="svg_244" y2="529.999979" x2="651.499934" y1="529.999979" x1="604.99991" fill-opacity="null" stroke-opacity="null" stroke-width="3" fill="none"/>
  <line stroke="#000" stroke-linecap="null" stroke-linejoin="null" id="svg_245" y2="599.999945" x2="651.499934" y1="599.999945" x1="604.99991" fill-opacity="null" stroke-opacity="null" stroke-width="3" fill="none"/>
  <line stroke="#000" stroke-linecap="null" stroke-linejoin="null" id="svg_246" y2="590" x2="606.499854" y1="495" x1="606.499854" fill-opacity="null" stroke-opacity="null" stroke-width="3" fill="none"/>
  <line stroke="#000" stroke-linecap="null" stroke-linejoin="null" id="svg_247" y2="424.999924" x2="576.499964" y1="424.999924" x1="450" fill-opacity="null" stroke-opacity="null" stroke-width="3" fill="none"/>
  <line stroke="#000" stroke-linecap="null" stroke-linejoin="null" id="svg_248" y2="264.999804" x2="576.499964" y1="264.999804" x1="450" fill-opacity="null" stroke-opacity="null" stroke-width="3" fill="none"/>
  <line stroke="#000" stroke-linecap="null" stroke-linejoin="null" id="svg_249" y2="199.999731" x2="576.499964" y1="199.999731" x1="450" fill-opacity="null" stroke-opacity="null" stroke-width="3" fill="none"/>
  <line stroke="#000" stroke-linecap="null" stroke-linejoin="null" id="svg_250" y2="129.99965" x2="576.499964" y1="129.99965" x1="450" fill-opacity="null" stroke-opacity="null" stroke-width="3" fill="none"/>
  <line stroke="#000" stroke-linecap="null" stroke-linejoin="null" id="svg_251" y2="368.49986" x2="576.499964" y1="368.49986" x1="450" fill-opacity="null" stroke-opacity="null" stroke-width="3" fill="none"/>
  <line stroke="#000" stroke-linecap="null" stroke-linejoin="null" id="svg_252" y2="274.9998" x2="651.499874" y1="274.9998" x1="605" fill-opacity="null" stroke-opacity="null" stroke-width="3" fill="none"/>
  <line stroke="#000" stroke-linecap="null" stroke-linejoin="null" id="svg_253" y2="319.99974" x2="651.499874" y1="319.99974" x1="605" fill-opacity="null" stroke-opacity="null" stroke-width="3" fill="none"/>
  <line stroke="#000" stroke-linecap="null" stroke-linejoin="null" id="svg_254" y2="364.99968" x2="651.499874" y1="364.99968" x1="605" fill-opacity="null" stroke-opacity="null" stroke-width="3" fill="none"/>
  <line stroke="#000" stroke-linecap="null" stroke-linejoin="null" id="svg_255" y2="394.999688" x2="651.499874" y1="394.999688" x1="605" fill-opacity="null" stroke-opacity="null" stroke-width="3" fill="none"/>
  <line stroke="#000" stroke-linecap="null" stroke-linejoin="null" id="svg_256" y2="439.999579" x2="651.499874" y1="439.999579" x1="605" fill-opacity="null" stroke-opacity="null" stroke-width="3" fill="none"/>
  <line stroke="#000" stroke-linecap="null" stroke-linejoin="null" id="svg_257" y2="209.999887" x2="651.499874" y1="209.999887" x1="605" fill-opacity="null" stroke-opacity="null" stroke-width="3" fill="none"/>
  <line stroke="#000" stroke-linecap="null" stroke-linejoin="null" id="svg_258" y2="179.999927" x2="651.499874" y1="179.999927" x1="605" fill-opacity="null" stroke-opacity="null" stroke-width="3" fill="none"/>
  <line stroke="#000" stroke-linecap="null" stroke-linejoin="null" id="svg_259" y2="114.999792" x2="651.499874" y1="114.999792" x1="605" fill-opacity="null" stroke-opacity="null" stroke-width="3" fill="none"/>
  <line stroke="#000" stroke-linecap="null" stroke-linejoin="null" id="svg_260" y2="194.999907" x2="651.499874" y1="194.999907" x1="605" fill-opacity="null" stroke-opacity="null" stroke-width="3" fill="none"/>
  <path id="svg_261" d="m583.982234,87.94565c1.95111,-0.011999 3.902219,-0.024 5.85333,-0.035998c0.012846,-1.897937 0.02569,-3.795875 0.038535,-5.69381c1.941789,0 3.88358,0 5.82537,0c0,-1.909581 0,-3.819163 0,-5.728743c1.991515,0 3.983028,0 5.974544,0c0,-1.863006 0,-3.726012 0,-5.589017c1.966927,0 3.933854,0 5.900783,0c0,-1.863005 0,-3.726012 0,-5.589018c2.925805,0 5.851611,0 8.777417,0c0,0.931503 0,1.863006 0,2.794509c-1.942345,0 -3.884683,0 -5.827027,0c0,1.886293 0,3.772586 0,5.65888c-1.966926,0 -3.933853,0 -5.900783,0c0,1.886294 0,3.772588 0,5.658881c-1.966929,0 -3.933854,0 -5.900783,0c0,1.886293 0,3.772587 0,5.658877c-1.991516,0 -3.98303,0 -5.974543,0c0,1.909582 0,3.819163 0,5.728742c-2.950393,0 -5.900784,0 -8.851176,0c0.131529,-0.925679 -0.224227,-1.969486 0.084333,-2.863302l0,-0.000001z" fill-opacity="null" stroke-opacity="null" stroke-width="3" stroke="#000" fill="none"/>
  <line stroke="#000" stroke-linecap="null" stroke-linejoin="null" id="svg_262" y2="96.000091" x2="640" y1="96.000091" x1="573.500005" fill-opacity="null" stroke-opacity="null" stroke-width="3" fill="none"/>
  <line stroke="#000" stroke-linecap="null" stroke-linejoin="null" id="svg_263" y2="484.998874" x2="606.499854" y1="450" x1="606.499854" fill-opacity="null" stroke-opacity="null" stroke-width="3" fill="none"/>
  <line stroke="#000" stroke-linecap="null" stroke-linejoin="null" id="svg_264" y2="430" x2="606.499854" y1="393.499542" x1="606.499854" fill-opacity="null" stroke-opacity="null" stroke-width="3" fill="none"/>
  <line stroke="#000" stroke-linecap="null" stroke-linejoin="null" id="svg_265" y2="355" x2="606.499854" y1="285" x1="606.499854" fill-opacity="null" stroke-opacity="null" stroke-width="3" fill="none"/>
  <line stroke="#000" stroke-linecap="null" stroke-linejoin="null" id="svg_266" y2="265" x2="606.499854" y1="209.999414" x1="606.499854" fill-opacity="null" stroke-opacity="null" stroke-width="3" fill="none"/>
  <line stroke="#000" stroke-linecap="null" stroke-linejoin="null" id="svg_267" y2="179.999092" x2="606.499854" y1="124.998506" x1="606.499854" fill-opacity="null" stroke-opacity="null" stroke-width="3" fill="none"/>
  <line stroke="#000" stroke-linecap="null" stroke-linejoin="null" id="svg_268" y2="199.999314" x2="606.499854" y1="189.999199" x1="606.499854" fill-opacity="null" stroke-opacity="null" stroke-width="3" fill="none"/>
  <line stroke="#000" stroke-linecap="null" stroke-linejoin="null" id="svg_269" y2="442" x2="574.999869" y1="379.998844" x1="574.999869" fill-opacity="null" stroke-opacity="null" stroke-width="3" fill="none"/>
  <line stroke="#000" stroke-linecap="null" stroke-linejoin="null" id="svg_270" y2="318.500029" x2="574.999869" y1="275" x1="574.999869" fill-opacity="null" stroke-opacity="null" stroke-width="3" fill="none"/>
  <line stroke="#000" stroke-linecap="null" stroke-linejoin="null" id="svg_271" y2="264.999279" x2="574.999869" y1="220" x1="574.999869" fill-opacity="null" stroke-opacity="null" stroke-width="3" fill="none"/>
  <line stroke="#000" stroke-linecap="null" stroke-linejoin="null" id="svg_272" y2="209.998291" x2="574.999869" y1="140" x1="574.999869" fill-opacity="null" stroke-opacity="null" stroke-width="3" fill="none"/>
  <line stroke="#000" stroke-linecap="null" stroke-linejoin="null" id="svg_273" y2="129.497434" x2="574.999869" y1="109.99968" x1="574.999869" fill-opacity="null" stroke-opacity="null" stroke-width="3" fill="none"/>
  <line stroke="#000" stroke-linecap="null" stroke-linejoin="null" id="svg_274" y2="95.997074" x2="574.999869" y1="59.999146" x1="574.999869" fill-opacity="null" stroke-opacity="null" stroke-width="3" fill="none"/>
  <text style="cursor: move;" xml:space="preserve" text-anchor="start" font-family="Helvetica, Arial, sans-serif" font-size="22" id="svg_275" y="570.415148" x="78.29245" fill-opacity="null" stroke-opacity="null" stroke-width="0" stroke="#000" fill="#000000">Б401</text>
  <text style="cursor: move;" xml:space="preserve" text-anchor="start" font-family="Helvetica, Arial, sans-serif" font-size="22" id="svg_276" y="570.415148" x="161.292394" fill-opacity="null" stroke-opacity="null" stroke-width="0" stroke="#000" fill="#000000">Б402</text>
  <text style="cursor: move;" xml:space="preserve" text-anchor="start" font-family="Helvetica, Arial, sans-serif" font-size="22" id="svg_278" y="570.415148" x="239.292675" fill-opacity="null" stroke-opacity="null" stroke-width="0" stroke="#000" fill="#000000">Б403</text>
  <text style="cursor: move;" xml:space="preserve" text-anchor="start" font-family="Helvetica, Arial, sans-serif" font-size="22" id="svg_279" y="570.415148" x="319.292515" fill-opacity="null" stroke-opacity="null" stroke-width="0" stroke="#000" fill="#000000">Б404</text>
  <text style="cursor: move;" xml:space="preserve" text-anchor="start" font-family="Helvetica, Arial, sans-serif" font-size="22" id="svg_280" y="461.915368" x="486.79218" fill-opacity="null" stroke-opacity="null" stroke-width="0" stroke="#000" fill="#000000">Б405</text>
  <text style="cursor: move;" xml:space="preserve" text-anchor="start" font-family="Helvetica, Arial, sans-serif" font-size="22" id="svg_281" y="402.915509" x="486.79218" fill-opacity="null" stroke-opacity="null" stroke-width="0" stroke="#000" fill="#000000">Б406</text>
  <text style="cursor: move;" xml:space="preserve" text-anchor="start" font-family="Helvetica, Arial, sans-serif" font-size="22" id="svg_282" y="350.415644" x="486.79218" fill-opacity="null" stroke-opacity="null" stroke-width="0" stroke="#000" fill="#000000">Б407</text>
  <text style="cursor: move;" xml:space="preserve" text-anchor="start" font-family="Helvetica, Arial, sans-serif" font-size="22" id="svg_283" y="298.915766" x="486.79218" fill-opacity="null" stroke-opacity="null" stroke-width="0" stroke="#000" fill="#000000">Б408</text>
  <text style="cursor: move;" xml:space="preserve" text-anchor="start" font-family="Helvetica, Arial, sans-serif" font-size="22" id="svg_284" y="239.915907" x="486.79218" fill-opacity="null" stroke-opacity="null" stroke-width="0" stroke="#000" fill="#000000">Б409</text>
  <text style="cursor: move;" xml:space="preserve" text-anchor="start" font-family="Helvetica, Arial, sans-serif" font-size="22" id="svg_285" y="169.916055" x="486.79218" fill-opacity="null" stroke-opacity="null" stroke-width="0" stroke="#000" fill="#000000">Б410</text>
  <text style="cursor: move;" xml:space="preserve" text-anchor="start" font-family="Helvetica, Arial, sans-serif" font-size="16" id="svg_286" y="151.415987" x="609.291934" fill-opacity="null" stroke-opacity="null" stroke-width="0" stroke="#000" fill="#000000">Б412</text>
  <text style="cursor: move;" xml:space="preserve" text-anchor="start" font-family="Helvetica, Arial, sans-serif" font-size="16" id="svg_287" y="247.415795" x="609.791933" fill-opacity="null" stroke-opacity="null" stroke-width="0" stroke="#000" fill="#000000">Б413</text>
  <text style="cursor: move;" xml:space="preserve" text-anchor="start" font-family="Helvetica, Arial, sans-serif" font-size="16" id="svg_288" y="302.415685" x="609.791933" fill-opacity="null" stroke-opacity="null" stroke-width="0" stroke="#000" fill="#000000">Б414</text>
  <text style="cursor: move;" xml:space="preserve" text-anchor="start" font-family="Helvetica, Arial, sans-serif" font-size="16" id="svg_289" y="347.415595" x="609.791933" fill-opacity="null" stroke-opacity="null" stroke-width="0" stroke="#000" fill="#000000">Б415</text>
  <text style="cursor: move;" xml:space="preserve" text-anchor="start" font-family="Helvetica, Arial, sans-serif" font-size="16" id="svg_290" y="422.415444" x="609.791933" fill-opacity="null" stroke-opacity="null" stroke-width="0" stroke="#000" fill="#000000">Б416</text>
  <text style="cursor: move;" xml:space="preserve" text-anchor="start" font-family="Helvetica, Arial, sans-serif" font-size="16" id="svg_291" y="467.415354" x="609.791933" fill-opacity="null" stroke-opacity="null" stroke-width="0" stroke="#000" fill="#000000">Б417</text>
  <text style="cursor: move;" xml:space="preserve" text-anchor="start" font-family="Helvetica, Arial, sans-serif" font-size="16" id="svg_292" y="512.415264" x="609.791933" fill-opacity="null" stroke-opacity="null" stroke-width="0" stroke="#000" fill="#000000">Б418</text>
  <text style="cursor: move;" xml:space="preserve" text-anchor="start" font-family="Helvetica, Arial, sans-serif" font-size="16" id="svg_293" y="569.415157" x="609.791933" fill-opacity="null" stroke-opacity="null" stroke-width="0" stroke="#000" fill="#000000">Б419</text>
  <line stroke="#000" stroke-linecap="null" stroke-linejoin="null" id="svg_298" y2="317.999884" x2="576.499964" y1="317.999884" x1="450" fill-opacity="null" stroke-opacity="null" stroke-width="3" fill="none"/>
  <text style="cursor: move;" xml:space="preserve" text-anchor="start" font-family="Helvetica, Arial, sans-serif" font-size="22" id="svg_299" y="99.916088" x="486.79218" fill-opacity="null" stroke-opacity="null" stroke-width="0" stroke="#000" fill="#000000">Б411</text>
  <line stroke="#000" stroke-linecap="null" stroke-linejoin="null" id="svg_300" y2="368.500005" x2="574.999869" y1="328" x1="574.999869" fill-opacity="null" stroke-opacity="null" stroke-width="3" fill="none"/>
  <line stroke="#ff0000" stroke-linecap="null" stroke-linejoin="null" id="svg_307" y2="658.343536" x2="412.246852" y1="658.094004" x1="592.99877" fill-opacity="null" stroke-width="3" fill="none"/>
  <line stroke="#ff0000" stroke-linecap="null" stroke-linejoin="null" id="svg_308" y2="358.587659" x2="591.495592" y1="659.086761" x1="591.495592" fill-opacity="null" stroke-opacity="null" stroke-width="3" fill="none"/>
  <line stroke="#ff0000" stroke-linecap="null" stroke-linejoin="null" id="svg_309" y2="658.849652" x2="413.799777" y1="616.099674" x1="413.799777" fill-opacity="null" stroke-opacity="null" stroke-width="3" fill="none"/>
  <line stroke="#ff0000" stroke-linecap="null" stroke-linejoin="null" id="svg_310" y2="359.55001" x2="604.64999" y1="359.55001" x1="589.899991" fill-opacity="null" stroke-opacity="null" stroke-width="3" fill="none"/>
 </g>
</svg>