<svg width="700.0000000000002" height="700.0000000000002" xmlns="http://www.w3.org/2000/svg">
 <g>
  <title>background</title>
  <rect fill="none" id="canvas_background" height="176.999462" width="176.999462" y="-1" x="-1"/>
 </g>

 <g>
  <title>Layer 1</title>
  <path fill="#fff" stroke="#000" opacity="NaN" id="svg_2"/>
  <line fill="none" stroke="#000" stroke-width="3" x1="20" y1="520.666674" x2="20" y2="686.666674" id="svg_32"/>
  <line fill="none" stroke="#000" stroke-width="3" x1="19" y1="685.666674" x2="681.33333" y2="685.666674" id="svg_33"/>
  <line fill="none" stroke="#000" stroke-width="3" x1="680" y1="520.666674" x2="680" y2="686.666674" id="svg_34"/>
  <line fill="none" stroke="#000" stroke-width="3" x1="580" y1="520.666674" x2="580" y2="686.666674" id="svg_36"/>
  <line fill="none" stroke="#000" stroke-width="3" x1="120" y1="520.666674" x2="120" y2="686.666674" id="svg_37"/>
  <path fill="none" stroke-width="3" opacity="undefined" d="m581.49998,557.16667l-29.66667,-0.00001" id="svg_38" stroke="#000"/>
  <path fill="none" stroke="#000" stroke-width="3" opacity="undefined" d="m553.42723,556.16669l0,95" id="svg_39"/>
  <line fill="none" stroke-width="3" x1="534" y1="649.666674" x2="553" y2="649.666674" id="svg_40" stroke="#000"/>
  <line fill="none" stroke="#000" stroke-width="3" x1="535" y1="648.666674" x2="535" y2="676.666674" id="svg_42"/>
  <line fill="none" stroke="#000" stroke-width="3" x1="578.66665" y1="521.666674" x2="681" y2="521.666674" id="svg_43"/>
  <line fill="none" stroke="#000" stroke-width="3" x1="18.66667" y1="521.666674" x2="121" y2="521.666674" id="svg_44"/>
  <line fill="none" stroke="#000" stroke-width="3" x1="140" y1="521.666674" x2="559" y2="521.666664" id="svg_45"/>
  <line fill="none" stroke="#000" stroke-width="3" x1="94.99999" y1="464.666674" x2="94.99999" y2="520.666674" id="svg_46"/>
  <line fill="none" stroke="#000" stroke-width="3" x1="164.99999" y1="464.666674" x2="165" y2="520.666674" id="svg_47"/>
  <line fill="none" stroke="#000" stroke-width="3" x1="605" y1="464.666674" x2="605" y2="520.666674" id="svg_48"/>
  <line fill="none" stroke="#000" stroke-width="3" x1="535" y1="464.666674" x2="535" y2="520.666674" id="svg_49"/>
  <rect fill="none" stroke-width="3" x="60" y="55.666674" width="140" height="340" id="svg_52" stroke="#000"/>
  <line fill="none" stroke="#000" stroke-width="3" x1="499.99999" y1="57.000004" x2="499.99999" y2="466.000004" id="svg_57"/>
  <line fill="none" stroke="#000" stroke-width="3" x1="498.33332" y1="55.666664" x2="641.66667" y2="55.666664" id="svg_58"/>
  <line fill="none" stroke="#000" stroke-width="3" x1="640" y1="57.000004" x2="640" y2="466.000004" id="svg_59"/>
  <line fill="none" stroke="#000" stroke-width="3" x1="498.99999" y1="464.666664" x2="559" y2="464.666664" id="svg_60"/>
  <line fill="none" stroke="#000" stroke-width="3" x1="579" y1="464.666664" x2="640.99999" y2="464.666674" id="svg_61"/>
  <line fill="none" stroke="#000" stroke-width="3" x1="558.33333" y1="475.000004" x2="558.33333" y2="523.207514" id="svg_62"/>
  <line fill="none" stroke="#000" stroke-width="3" x1="580.20818" y1="474.666674" x2="580" y2="521.874174" id="svg_63"/>
  <line fill="none" stroke="#000" stroke-width="3" x1="499" y1="180.666674" x2="559" y2="180.666674" id="svg_64"/>
  <line fill="none" stroke="#000" stroke-width="3" x1="499" y1="214.666674" x2="559" y2="214.666674" id="svg_66"/>
  <line fill="none" stroke="#000" stroke-width="3" x1="499" y1="339.666674" x2="559" y2="339.666674" id="svg_67"/>
  <line fill="none" stroke="#000" stroke-width="3" x1="579.33333" y1="339.666674" x2="640.40402" y2="339.666674" id="svg_68"/>
  <line fill="none" stroke="#000" stroke-width="3" x1="580.66667" y1="311.333344" x2="641.33333" y2="311.333344" id="svg_69"/>
  <line fill="none" stroke="#000" stroke-width="3" x1="579" y1="180.666674" x2="640" y2="180.666674" id="svg_70"/>
  <line fill="none" stroke="#000" stroke-width="3" x1="579.40377" y1="114.666674" x2="641.33333" y2="114.666674" id="svg_71"/>
  <line fill="none" stroke="#000" stroke-width="3" x1="579.33333" y1="86.666664" x2="641.33333" y2="86.666664" id="svg_72"/>
  <line fill="none" stroke="#000" stroke-width="3" x1="558.33333" y1="349.666674" x2="558.33333" y2="466.000004" id="svg_73"/>
  <line fill="none" stroke="#000" stroke-width="3" x1="580.7371" y1="338.936064" x2="580.7371" y2="454.666674" id="svg_74"/>
  <line fill="none" stroke="#000" stroke-width="3" x1="558.33333" y1="224.666674" x2="558.33333" y2="341.269394" id="svg_75"/>
  <line fill="none" stroke="#000" stroke-width="3" x1="581.07044" y1="310.269284" x2="581.07044" y2="329.666674" id="svg_76"/>
  <line fill="none" stroke="#000" stroke-width="3" x1="580.40377" y1="190.666674" x2="581.07044" y2="310.666674" id="svg_77"/>
  <line fill="none" stroke="#000" stroke-width="3" x1="558.33333" y1="190.333344" x2="558.33333" y2="216.000004" id="svg_78"/>
  <line fill="none" stroke="#000" stroke-width="3" x1="558" y1="65.666674" x2="558" y2="181.935314" id="svg_79"/>
  <line fill="none" stroke-width="3" x1="580.73711" y1="114.666674" x2="580.66667" y2="170.666674" id="svg_80" stroke="#000"/>
  <line fill="none" stroke="#000" stroke-width="3" x1="580.73711" y1="96.666674" x2="580.73711" y2="114.601794" id="svg_81"/>
  <line fill="none" stroke="#000" stroke-width="3" x1="60" y1="395.666674" x2="60" y2="464.666674" id="svg_82"/>
  <line fill="none" stroke="#000" stroke-width="3" x1="200" y1="395.666674" x2="200" y2="464.666674" id="svg_83"/>
  <line fill="none" stroke="#000" stroke-width="3" x1="58.66667" y1="464.666674" x2="119.33333" y2="464.666674" id="svg_84"/>
  <line fill="none" stroke="#000" stroke-width="3" x1="140" y1="464.666674" x2="201.33333" y2="464.666674" id="svg_85"/>
  <line fill="none" stroke="#000" stroke-width="3" x1="120" y1="463.333344" x2="120" y2="512.333344" id="svg_86"/>
  <line fill="none" stroke="#000" stroke-width="3" x1="141" y1="523.000004" x2="141" y2="475.000004" id="svg_87"/>
  <line fill="none" stroke="#000" stroke-width="3" x1="109.33333" y1="396.666494" x2="109.33333" y2="436.666484" id="svg_90"/>
  <line fill="none" stroke="#000" stroke-width="3" x1="108" y1="437.999814" x2="153" y2="438.333154" id="svg_91"/>
  <line fill="none" stroke="#000" stroke-width="3" x1="152" y1="396.666674" x2="152" y2="423.999824" id="svg_92"/>
  <line fill="none" stroke="#000" stroke-width="3" x1="164.53322" y1="430.666674" x2="199.19988" y2="430.666674" id="svg_93"/>
  <line fill="none" stroke="#000" stroke-width="3" x1="165.19988" y1="429.333344" x2="165.19988" y2="454.333344" id="svg_94"/>
  <line fill="none" stroke="#000" stroke-width="3" x1="109.33333" y1="438.666674" x2="109.33333" y2="454.666674" id="svg_95"/>
  <line fill="none" stroke="#000" stroke-width="3" x1="60" y1="430.666674" x2="99" y2="430.666674" id="svg_96"/>
  <line fill="none" stroke="#000" stroke-width="3" x1="90" y1="405.666674" x2="90" y2="429.666674" id="svg_97"/>
  <line fill="none" stroke="#000" stroke-width="3" x1="70" y1="90.666674" x2="190" y2="90.666674" id="svg_98"/>
  <line fill="none" stroke="#000" stroke-width="3" x1="60" y1="145.666674" x2="86" y2="145.666674" id="svg_99"/>
  <line fill="none" stroke="#000" stroke-width="3" x1="174" y1="145.666674" x2="200" y2="145.666674" id="svg_100"/>
  <line fill="none" stroke="#000" stroke-width="3" x1="175.33334" y1="90.666674" x2="175.33334" y2="135.666674" id="svg_101"/>
  <line fill="none" stroke="#000" stroke-width="3" x1="84.66667" y1="90.666674" x2="84.66667" y2="135.666674" id="svg_102"/>
  <line fill="none" stroke="#000" stroke-width="3" x1="105" y1="55.666674" x2="105" y2="80.666674" id="svg_103"/>
  <path fill="none" stroke-width="3" d="m67.62122,80.80865c1.82104,-0.00988 3.64209,-0.01976 5.46313,-0.02965c0.01199,-1.56301 0.02398,-3.12603 0.03597,-4.68904c1.81235,0 3.62469,0 5.43704,0c0,-1.5726 0,-3.14521 0,-4.71781c1.85876,0 3.71751,0 5.57627,0c0,-1.53425 0,-3.06849 0,-4.60274c1.83581,0 3.67161,0 5.50742,0c0,-1.53425 0,-3.06849 0,-4.60274c2.73076,0 5.46153,0 8.19229,0c0,0.76712 0,1.53425 0,2.30137c-1.81286,0 -3.62572,0 -5.43858,0c0,1.55343 0,3.10685 0,4.66028c-1.83581,0 -3.67161,0 -5.50742,0c0,1.55343 0,3.10685 0,4.66028c-1.83581,0 -3.67161,0 -5.50742,0c0,1.55343 0,3.10685 0,4.66027c-1.85876,0 -3.71751,0 -5.57627,0c0,1.5726 0,3.14521 0,4.71781c-2.75371,0 -5.50742,0 -8.26114,0c0.12276,-0.76233 -0.20928,-1.62194 0.07871,-2.35802l0,0l0,-0.00001z" id="svg_104" stroke="#000"/>
  <line fill="none" stroke="#000" stroke-width="3" x1="165" y1="520.666674" x2="165" y2="575.666674" id="svg_107"/>
  <line fill="none" stroke="#000" stroke-width="3" x1="535.33333" y1="520.666674" x2="535.33333" y2="575.666674" id="svg_108"/>
  <line fill="none" stroke="#000" stroke-width="3" x1="535" y1="639.666674" x2="535" y2="620.666674" id="svg_109"/>
  <line fill="none" stroke="#000" stroke-width="3" x1="483.33333" y1="621.666674" x2="536.66667" y2="621.666674" id="svg_110"/>
  <line fill="none" stroke-width="3" x1="360" y1="621.666674" x2="475" y2="621.666674" id="svg_111" stroke="#000"/>
  <line fill="none" stroke="#000" stroke-width="3" x1="164" y1="622.000004" x2="215" y2="622.000004" id="svg_112"/>
  <line fill="none" stroke-width="3" x1="225" y1="622.000004" x2="315" y2="622.000004" id="svg_113" stroke="#000"/>
  <line fill="none" stroke="#000" stroke-width="3" x1="450" y1="620.666674" x2="450" y2="685.666674" id="svg_114"/>
  <line fill="none" stroke="#000" stroke-width="3" x1="485" y1="620.666674" x2="485" y2="685.666674" id="svg_115"/>
  <line fill="none" stroke-width="3" x1="350" y1="620.666674" x2="350" y2="685.666674" id="svg_116" stroke="#000"/>
  <line fill="none" stroke="#000" stroke-width="3" x1="315" y1="622.000004" x2="340" y2="622.000004" id="svg_117"/>
  <line fill="none" stroke="#000" stroke-width="3" x1="315" y1="620.666674" x2="315" y2="685.666674" id="svg_118"/>
  <line fill="none" stroke="#000" stroke-width="3" x1="215" y1="620.666674" x2="215" y2="685.666674" id="svg_119"/>
  <line fill="none" stroke-width="3" x1="165.19998" y1="620.666674" x2="165.19998" y2="650.666674" id="svg_120" stroke="#000"/>
  <line fill="none" stroke="#000" stroke-width="3" x1="120" y1="635.666674" x2="150" y2="635.666674" id="svg_121"/>
  <line fill="none" stroke="#000" stroke-width="3" x1="148.66667" y1="634.333344" x2="148.66667" y2="675.333344" id="svg_122"/>
  <line fill="none" stroke="#000" stroke-width="3" x1="165" y1="670.666674" x2="165" y2="685.333324" id="svg_123"/>
  <line fill="none" stroke="#000" stroke-width="3" x1="164" y1="585.666674" x2="177" y2="585.666674" id="svg_124"/>
  <line fill="none" stroke="#000" stroke-width="3" x1="215" y1="521.333344" x2="215" y2="575.333344" id="svg_125"/>
  <line fill="none" stroke="#000" stroke-width="3" x1="187.33333" y1="585.666674" x2="275" y2="585.666674" id="svg_126"/>
  <line fill="none" stroke="#000" stroke-width="3" x1="305" y1="520.666674" x2="305" y2="585.666674" id="svg_127"/>
  <line fill="none" stroke="#000" stroke-width="3" x1="285" y1="585.666674" x2="340" y2="585.666674" id="svg_128"/>
  <line fill="none" stroke="#000" stroke-width="3" x1="349" y1="585.666674" x2="390" y2="585.666674" id="svg_129"/>
  <line fill="none" stroke="#000" stroke-width="3" x1="485" y1="520.666674" x2="485" y2="585.666674" id="svg_130"/>
  <line fill="none" stroke="#000" stroke-width="3" x1="483.33333" y1="585.666674" x2="537" y2="585.666674" id="svg_132"/>
  <line fill="none" stroke="#000" stroke-width="3" x1="399" y1="585.666674" x2="475" y2="585.666674" id="svg_133"/>
  <line fill="none" stroke="#000" stroke-width="3" x1="425" y1="520.666674" x2="425" y2="585.666674" id="svg_134"/>
  <path fill="none" stroke-width="3" d="m494.62789,665.24719c1.9211,-0.01223 3.8422,-0.02447 5.7633,-0.0367c0.01265,-1.93516 0.0253,-3.87031 0.03794,-5.80547c1.91192,0 3.82385,0 5.73577,0c0,-1.94703 0,-3.89406 0,-5.84109c1.96089,0 3.92177,0 5.88265,0c0,-1.89954 0,-3.79908 0,-5.69862c1.93667,0 3.87335,0 5.81003,0c0,-1.89954 0,-3.79908 0,-5.69862c2.88081,0 5.76161,0 8.64242,0c0,0.94977 0,1.89954 0,2.84931c-1.91247,0 -3.82493,0 -5.73741,0c0,1.92328 0,3.84657 0,5.76985c-1.93667,0 -3.87335,0 -5.81003,0c0,1.92329 0,3.84657 0,5.76985c-1.93668,0 -3.87335,0 -5.81003,0c0,1.92328 0,3.84657 0,5.76985c-1.96089,0 -3.92177,0 -5.88265,0c0,1.94703 0,3.89406 0,5.84109c-2.90502,0 -5.81003,0 -8.71504,0c0.12951,-0.94383 -0.22078,-2.00811 0.08304,-2.91945l0,0l0.00001,0z" id="svg_135" stroke="#000"/>
  <path fill="none" stroke="#000" stroke-width="3" d="m174.62389,664.65544c1.86107,-0.01192 3.72213,-0.02384 5.5832,-0.03576c0.01225,-1.88554 0.0245,-3.77109 0.03676,-5.65663c1.85218,0 3.70435,0 5.55653,0c0,-1.89711 0,-3.79422 0,-5.69134c1.89961,0 3.79921,0 5.69882,0c0,-1.85084 0,-3.70168 0,-5.55252c1.87615,0 3.75231,0 5.62846,0c0,-1.85084 0,-3.70168 0,-5.55252c2.79078,0 5.58156,0 8.37234,0c0,0.92542 0,1.85084 0,2.77626c-1.85271,0 -3.7054,0 -5.55811,0c0,1.87398 0,3.74795 0,5.62193c-1.87615,0 -3.75231,0 -5.62846,0c0,1.87398 0,3.74795 0,5.62193c-1.87616,0 -3.75231,0 -5.62846,0c0,1.87398 0,3.74795 0,5.62193c-1.89961,0 -3.79921,0 -5.69882,0c0,1.89711 0,3.79422 0,5.69134c-2.81423,0 -5.62846,0 -8.4427,0c0.12546,-0.91964 -0.21388,-1.95663 0.08044,-2.84461l0,0l0,-0.00001z" id="svg_136"/>
  <line fill="none" stroke="#000" stroke-width="3" x1="139" y1="574.666674" x2="166.33333" y2="574.666674" id="svg_138"/>
  <line fill="none" stroke="#000" stroke-width="3" x1="141" y1="520.666674" x2="141" y2="564.666674" id="svg_139"/>
  <line fill="none" stroke="#000" stroke-width="3" x1="187.66667" y1="530.000004" x2="187.66667" y2="587.000004" id="svg_140"/>
  <line fill="none" stroke="#000" stroke-width="3" x1="175.66667" y1="572.666674" x2="175.66667" y2="586.666674" id="svg_141"/>
  <line fill="none" stroke="#000" stroke-width="3" x1="176" y1="574.000004" x2="215.73335" y2="574.000004" id="svg_142"/>
  <text fill="#000000" stroke="#000" stroke-width="0" x="276.931258" y="249.399996" id="svg_1" font-size="36" font-family="Helvetica, Arial, sans-serif" text-anchor="start" xml:space="preserve">Корпус 2</text>
  <text fill="#000000" stroke="#000" stroke-width="0" x="291.956256" y="306.399984" id="svg_4" font-size="36" font-family="Helvetica, Arial, sans-serif" text-anchor="start" xml:space="preserve" font-weight="normal" font-style="normal">Этаж 4</text>
  <path fill="none" stroke-width="3" d="m596.62124,80.14198c1.82104,-0.00988 3.64209,-0.01976 5.46313,-0.02965c0.01199,-1.56301 0.02398,-3.12603 0.03597,-4.68904c1.81235,0 3.62469,0 5.43704,0c0,-1.5726 0,-3.14521 0,-4.71781c1.85876,0 3.71751,0 5.57627,0c0,-1.53425 0,-3.06849 0,-4.60274c1.83581,0 3.67161,0 5.50742,0c0,-1.53425 0,-3.06849 0,-4.60274c2.73076,0 5.46153,0 8.19229,0c0,0.76712 0,1.53425 0,2.30137c-1.81286,0 -3.62572,0 -5.43858,0c0,1.55343 0,3.10685 0,4.66028c-1.83581,0 -3.67161,0 -5.50742,0c0,1.55343 0,3.10685 0,4.66028c-1.83581,0 -3.67161,0 -5.50742,0c0,1.55343 0,3.10685 0,4.66027c-1.85876,0 -3.71751,0 -5.57627,0c0,1.5726 0,3.14521 0,4.71781c-2.75371,0 -5.50742,0 -8.26114,0c0.12276,-0.76233 -0.20928,-1.62194 0.07871,-2.35802l0,0l0,-0.00001z" id="svg_3" stroke="#000"/>
  <text fill="#000000" stroke="#000" stroke-width="0" stroke-opacity="null" fill-opacity="null" x="110" y="260" id="svg_5" font-size="22" font-family="Helvetica, Arial, sans-serif" text-anchor="start" xml:space="preserve">406</text>
  <text fill="#000000" stroke="#000" stroke-width="0" stroke-opacity="null" fill-opacity="null" x="110" y="210" id="svg_6" font-size="22" font-family="Helvetica, Arial, sans-serif" text-anchor="start" xml:space="preserve">403</text>
  <text fill="#000000" stroke="#000" stroke-width="0" stroke-opacity="null" fill-opacity="null" x="110" y="310" id="svg_7" font-size="22" font-family="Helvetica, Arial, sans-serif" text-anchor="start" xml:space="preserve">407</text>
  <text fill="#000000" stroke="#000" stroke-width="0" stroke-opacity="null" fill-opacity="null" x="117" y="668" id="svg_8" font-size="22" font-family="Helvetica, Arial, sans-serif" text-anchor="start" xml:space="preserve" transform="rotate(-90 135.35624694824233,660.4000244140626) ">402</text>
  <text fill="#000000" stroke="#000" stroke-width="0" stroke-opacity="null" fill-opacity="null" x="240" y="560" id="svg_9" font-size="22" font-family="Helvetica, Arial, sans-serif" text-anchor="start" xml:space="preserve">408</text>
  <line fill="none" stroke="#000" stroke-width="3" x1="370" y1="520.666674" x2="370" y2="585.666674" id="svg_11"/>
  <text fill="#000000" stroke="#000" stroke-width="0" stroke-opacity="null" fill-opacity="null" x="320" y="560" id="svg_12" font-size="22" font-family="Helvetica, Arial, sans-serif" text-anchor="start" xml:space="preserve">410</text>
  <text fill="#000000" stroke="#000" stroke-width="0" stroke-opacity="null" fill-opacity="null" x="380" y="560" id="svg_13" font-size="22" font-family="Helvetica, Arial, sans-serif" text-anchor="start" xml:space="preserve">412</text>
  <text fill="#000000" stroke="#000" stroke-width="0" stroke-opacity="null" fill-opacity="null" x="436" y="560" id="svg_14" font-size="22" font-family="Helvetica, Arial, sans-serif" text-anchor="start" xml:space="preserve">428</text>
  <text fill="#000000" stroke="#000" stroke-width="0" stroke-opacity="null" fill-opacity="null" x="248" y="663" id="svg_15" font-size="22" font-family="Helvetica, Arial, sans-serif" text-anchor="start" xml:space="preserve">409</text>
  <text fill="#000000" stroke="#000" stroke-width="0" stroke-opacity="null" fill-opacity="null" x="380" y="663" id="svg_16" font-size="22" font-family="Helvetica, Arial, sans-serif" text-anchor="start" xml:space="preserve">413</text>
  <text fill="#000000" stroke="#000" stroke-width="0" stroke-opacity="null" fill-opacity="null" x="315" y="660" id="svg_17" font-size="22" font-family="Helvetica, Arial, sans-serif" text-anchor="start" xml:space="preserve" transform="rotate(-90 332.5375061035158,652.4000244140626) ">411</text>
  <text fill="#000000" stroke="#000" stroke-width="0" stroke-opacity="null" fill-opacity="null" x="450" y="660" id="svg_18" font-size="22" font-family="Helvetica, Arial, sans-serif" text-anchor="start" xml:space="preserve" transform="rotate(-90 468.3562622070313,652.4000244140625) ">415</text>
  <text fill="#000000" stroke="#000" stroke-width="0" stroke-opacity="null" fill-opacity="null" x="492" y="560" id="svg_19" font-size="22" font-family="Helvetica, Arial, sans-serif" text-anchor="start" xml:space="preserve">416</text>
  <text fill="#000000" stroke="#000" stroke-width="0" stroke-opacity="null" fill-opacity="null" x="539" y="674" id="svg_20" font-size="22" font-family="Helvetica, Arial, sans-serif" text-anchor="start" xml:space="preserve">414</text>
  <text fill="#000000" stroke="#000" stroke-width="0" stroke-opacity="null" fill-opacity="null" x="529" y="500" id="svg_21" font-size="22" font-family="Helvetica, Arial, sans-serif" text-anchor="start" xml:space="preserve" transform="rotate(-90 547.3562622070312,492.3999938964843) ">427</text>
  <text fill="#000000" stroke="#000" stroke-width="0" stroke-opacity="null" fill-opacity="null" x="575" y="500" id="svg_22" font-size="22" font-family="Helvetica, Arial, sans-serif" text-anchor="start" xml:space="preserve" transform="rotate(-90 593.3562622070312,492.3999938964843) ">417</text>
  <text fill="#000000" stroke="#000" stroke-width="0" stroke-opacity="null" fill-opacity="null" x="509" y="410" id="svg_23" font-size="22" font-family="Helvetica, Arial, sans-serif" text-anchor="start" xml:space="preserve">418</text>
  <text fill="#000000" stroke="#000" stroke-width="0" stroke-opacity="null" fill-opacity="null" x="592" y="410" id="svg_24" font-size="22" font-family="Helvetica, Arial, sans-serif" text-anchor="start" xml:space="preserve">419</text>
  <text fill="#000000" stroke="#000" stroke-width="0" stroke-opacity="null" fill-opacity="null" x="592" y="333" id="svg_25" font-size="22" font-family="Helvetica, Arial, sans-serif" text-anchor="start" xml:space="preserve">421</text>
  <text fill="#000000" stroke="#000" stroke-width="0" stroke-opacity="null" fill-opacity="null" x="592" y="255" id="svg_26" font-size="22" font-family="Helvetica, Arial, sans-serif" text-anchor="start" xml:space="preserve">422</text>
  <text fill="#000000" stroke="#000" stroke-width="0" stroke-opacity="null" fill-opacity="null" x="511" y="285" id="svg_27" font-size="22" font-family="Helvetica, Arial, sans-serif" text-anchor="start" xml:space="preserve">420</text>
  <text fill="#000000" stroke="#000" stroke-width="0" stroke-opacity="null" fill-opacity="null" x="510" y="206" id="svg_28" font-size="22" font-family="Helvetica, Arial, sans-serif" text-anchor="start" xml:space="preserve">423</text>
  <text fill="#000000" stroke="#000" stroke-width="0" stroke-opacity="null" fill-opacity="null" x="592" y="155" id="svg_29" font-size="22" font-family="Helvetica, Arial, sans-serif" text-anchor="start" xml:space="preserve">424</text>
  <text fill="#000000" stroke="#000" stroke-width="0" stroke-opacity="null" fill-opacity="null" x="592" y="109" id="svg_31" font-size="22" font-family="Helvetica, Arial, sans-serif" text-anchor="start" xml:space="preserve">426</text>
  <text fill="#000000" stroke="#000" stroke-width="0" stroke-opacity="null" fill-opacity="null" x="510" y="126" id="svg_35" font-size="22" font-family="Helvetica, Arial, sans-serif" text-anchor="start" xml:space="preserve">425</text>
  <line stroke="#ff0000" fill="none" stroke-width="3" fill-opacity="null" x1="155.24942" y1="660.000025" x2="163.24942" y2="660.000025" id="svg_105" stroke-linejoin="null" stroke-linecap="null"/>
  <line stroke="#ff0000" fill="none" stroke-width="3" stroke-opacity="null" fill-opacity="null" x1="156.75" y1="660.750003" x2="156.75" y2="603.000499" id="svg_106" stroke-linejoin="null" stroke-linecap="null"/>
  <line stroke="#ff0000" stroke-linecap="null" stroke-linejoin="null" id="svg_10" y2="603.792871" x2="222.190611" y1="603.792871" x1="155.19254" fill-opacity="null" stroke-opacity="null" stroke-width="3" fill="none"/>
  <line stroke="#ff0000" stroke-linecap="null" stroke-linejoin="null" id="svg_51" y2="602.808963" x2="220.755927" y1="620.050888" x1="220.755927" fill-opacity="null" stroke-opacity="null" stroke-width="3" fill="none"/>
 </g>
</svg>