<svg width="700.0000000000002" height="700.0000000000002" xmlns="http://www.w3.org/2000/svg">
 <g stroke="null">
  <title>background</title>
  <rect stroke="null" fill="none" id="canvas_background" height="702" width="702" y="-1" x="-1"/>
 </g>

 <g stroke="null">
  <title>Layer 1</title>
  <path stroke="#000" fill="#fff" opacity="NaN" id="svg_2"/>
  <line stroke="#000" fill="none" stroke-width="3" x1="20" y1="520.666674" x2="20" y2="686.666674" id="svg_32"/>
  <line stroke="#000" fill="none" stroke-width="3" x1="19" y1="685.666674" x2="681.33333" y2="685.666674" id="svg_33"/>
  <line stroke="#000" fill="none" stroke-width="3" x1="680" y1="520.666674" x2="680" y2="686.666674" id="svg_34"/>
  <line fill="none" stroke-width="3" x1="580" y1="620.249983" x2="580" y2="676" id="svg_36" stroke="#000"/>
  <line stroke="#000" fill="none" stroke-width="3" x1="120" y1="620.499932" x2="120" y2="676" id="svg_37"/>
  <line stroke="#000" fill="none" stroke-width="3" x1="535" y1="667" x2="535" y2="686.666623" id="svg_42"/>
  <line stroke="#000" fill="none" stroke-width="3" x1="578.499998" y1="521.666674" x2="681" y2="521.666674" id="svg_43"/>
  <line stroke="#000" fill="none" stroke-width="3" x1="18.66667" y1="521.666674" x2="119.999998" y2="521.666674" id="svg_44"/>
  <line stroke="#000" fill="none" stroke-width="3" x1="137.999996" y1="521.666674" x2="559" y2="521.666664" id="svg_45"/>
  <line stroke="#000" fill="none" stroke-width="3" x1="605" y1="464.666674" x2="605" y2="520.666674" id="svg_48"/>
  <line stroke="#000" fill="none" stroke-width="3" x1="535" y1="464.666674" x2="535" y2="520.666674" id="svg_49"/>
  <line stroke="#000" fill="none" stroke-width="3" x1="499.99999" y1="57.000004" x2="499.99999" y2="466.000004" id="svg_57"/>
  <line stroke="#000" fill="none" stroke-width="3" x1="498.33332" y1="55.666664" x2="641.66667" y2="55.666664" id="svg_58"/>
  <line stroke="#000" fill="none" stroke-width="3" x1="640" y1="57.000004" x2="640" y2="466.000004" id="svg_59"/>
  <line stroke="#000" fill="none" stroke-width="3" x1="498.99999" y1="464.666664" x2="559" y2="464.666664" id="svg_60"/>
  <line fill="none" stroke-width="3" x1="603.499984" y1="464.666664" x2="640.499994" y2="464.666674" id="svg_61" stroke="#000"/>
  <line stroke="#000" fill="none" stroke-width="3" x1="558.33333" y1="475.000004" x2="558.33333" y2="523.207514" id="svg_62"/>
  <line stroke="#000" fill="none" stroke-width="3" x1="580.20818" y1="474.666674" x2="580" y2="521.874174" id="svg_63"/>
  <line stroke="#000" fill="none" stroke-width="3" x1="499" y1="314.668276" x2="549" y2="314.668276" id="svg_66"/>
  <line stroke="#000" fill="none" stroke-width="3" x1="499" y1="344.666754" x2="559.666625" y2="344.666754" id="svg_67"/>
  <line stroke="#000" fill="none" stroke-width="3" x1="579.33333" y1="374.667192" x2="640.40402" y2="374.667192" id="svg_68"/>
  <line fill="none" stroke-width="3" x1="579.416672" y1="285.332884" x2="641.33333" y2="285.332884" id="svg_69" stroke="#000"/>
  <line fill="none" stroke-width="3" x1="605.249943" y1="194.666898" x2="640" y2="194.666898" id="svg_70" stroke="#000"/>
  <line fill="none" stroke-width="3" x1="579.416694" y1="89.666712" x2="641.33333" y2="89.666712" id="svg_72" stroke="#000"/>
  <line fill="none" stroke-width="3" x1="558.33333" y1="417" x2="558.33333" y2="455" id="svg_73" stroke="#000"/>
  <line fill="none" stroke-width="3" x1="580.7371" y1="295" x2="580.7371" y2="454.666666" id="svg_74" stroke="#000"/>
  <line fill="none" stroke-width="3" x1="558.33333" y1="245" x2="558.33333" y2="406.520417" id="svg_75" stroke="#000"/>
  <line fill="none" stroke-width="3" x1="581.000002" y1="100" x2="581.000002" y2="184.250125" id="svg_77" stroke="#000"/>
  <line fill="none" stroke-width="3" x1="558" y1="65.666675" x2="558" y2="226.249977" id="svg_79" stroke="#000"/>
  <path stroke="#000" fill="none" stroke-width="3" d="m67.62122,80.80865c1.82104,-0.00988 3.64209,-0.01976 5.46313,-0.02965c0.01199,-1.56301 0.02398,-3.12603 0.03597,-4.68904c1.81235,0 3.62469,0 5.43704,0c0,-1.5726 0,-3.14521 0,-4.71781c1.85876,0 3.71751,0 5.57627,0c0,-1.53425 0,-3.06849 0,-4.60274c1.83581,0 3.67161,0 5.50742,0c0,-1.53425 0,-3.06849 0,-4.60274c2.73076,0 5.46153,0 8.19229,0c0,0.76712 0,1.53425 0,2.30137c-1.81286,0 -3.62572,0 -5.43858,0c0,1.55343 0,3.10685 0,4.66028c-1.83581,0 -3.67161,0 -5.50742,0c0,1.55343 0,3.10685 0,4.66028c-1.83581,0 -3.67161,0 -5.50742,0c0,1.55343 0,3.10685 0,4.66027c-1.85876,0 -3.71751,0 -5.57627,0c0,1.5726 0,3.14521 0,4.71781c-2.75371,0 -5.50742,0 -8.26114,0c0.12276,-0.76233 -0.20928,-1.62194 0.07871,-2.35802l0,0l0,-0.00001z" id="svg_104"/>
  <line fill="none" stroke-width="3" x1="165" y1="520.666671" x2="165" y2="587.666662" id="svg_107" stroke="#000"/>
  <line stroke="#000" fill="none" stroke-width="3" x1="535.33333" y1="520.666674" x2="535.33333" y2="575.666674" id="svg_108"/>
  <line stroke="#000" fill="none" stroke-width="3" x1="535" y1="641" x2="535" y2="620.666674" id="svg_109"/>
  <line stroke="#000" fill="none" stroke-width="3" x1="483.33333" y1="621.666674" x2="536.66667" y2="621.666674" id="svg_110"/>
  <line fill="none" stroke-width="3" x1="408" y1="642.166709" x2="421.999888" y2="642.166709" id="svg_111" stroke="#000"/>
  <line stroke="#000" fill="none" stroke-width="3" x1="18.750111" y1="622.000004" x2="120.750068" y2="622.000004" id="svg_112"/>
  <line fill="none" stroke-width="3" x1="247.666547" y1="622.000004" x2="325" y2="622.000004" id="svg_113" stroke="#000"/>
  <line stroke="#000" fill="none" stroke-width="3" x1="390.499997" y1="620.166673" x2="390.166806" y2="685.166673" id="svg_114"/>
  <line stroke="#000" fill="none" stroke-width="3" x1="485" y1="620.666674" x2="485" y2="685.666674" id="svg_115"/>
  <line fill="none" stroke-width="3" x1="365.000026" y1="621.416674" x2="365.000026" y2="685.166673" id="svg_116" stroke="#000"/>
  <line stroke="#000" fill="none" stroke-width="3" x1="213.333876" y1="622.000004" x2="238.333876" y2="622.000004" id="svg_117"/>
  <line fill="none" stroke-width="3" x1="248.333688" y1="632" x2="248.333688" y2="685.666677" id="svg_118" stroke="#000"/>
  <line stroke="#000" fill="none" stroke-width="3" x1="215" y1="620.666674" x2="215" y2="685.666674" id="svg_119"/>
  <line stroke="#000" fill="none" stroke-width="3" x1="165.19998" y1="620.666674" x2="165.19998" y2="641" id="svg_120"/>
  <line stroke="#000" fill="none" stroke-width="3" x1="165" y1="667" x2="165" y2="687" id="svg_123"/>
  <line stroke="#000" fill="none" stroke-width="3" x1="215" y1="521.333338" x2="215" y2="586.333335" id="svg_125"/>
  <line fill="none" stroke-width="3" x1="186.333331" y1="585.666674" x2="227.250006" y2="585.666674" id="svg_126" stroke="#000"/>
  <line stroke="#000" fill="none" stroke-width="3" x1="390.164324" y1="520.666674" x2="390.164324" y2="585.666674" id="svg_127"/>
  <line fill="none" stroke-width="3" x1="339.916707" y1="585.666674" x2="420" y2="585.666674" id="svg_128" stroke="#000"/>
  <line fill="none" stroke-width="3" x1="439.830603" y1="585.666674" x2="460" y2="585.666674" id="svg_129" stroke="#000"/>
  <line fill="none" stroke-width="3" x1="485" y1="520.666674" x2="485" y2="587.16668" id="svg_130" stroke="#000"/>
  <line fill="none" stroke-width="3" x1="524" y1="585.666674" x2="537" y2="585.666674" id="svg_132" stroke="#000"/>
  <path stroke="#000" fill="none" stroke-width="3" d="m494.62789,665.24719c1.9211,-0.01223 3.8422,-0.02447 5.7633,-0.0367c0.01265,-1.93516 0.0253,-3.87031 0.03794,-5.80547c1.91192,0 3.82385,0 5.73577,0c0,-1.94703 0,-3.89406 0,-5.84109c1.96089,0 3.92177,0 5.88265,0c0,-1.89954 0,-3.79908 0,-5.69862c1.93667,0 3.87335,0 5.81003,0c0,-1.89954 0,-3.79908 0,-5.69862c2.88081,0 5.76161,0 8.64242,0c0,0.94977 0,1.89954 0,2.84931c-1.91247,0 -3.82493,0 -5.73741,0c0,1.92328 0,3.84657 0,5.76985c-1.93667,0 -3.87335,0 -5.81003,0c0,1.92329 0,3.84657 0,5.76985c-1.93668,0 -3.87335,0 -5.81003,0c0,1.92328 0,3.84657 0,5.76985c-1.96089,0 -3.92177,0 -5.88265,0c0,1.94703 0,3.89406 0,5.84109c-2.90502,0 -5.81003,0 -8.71504,0c0.12951,-0.94383 -0.22078,-2.00811 0.08304,-2.91945l0,0l0.00001,0z" id="svg_135"/>
  <path stroke="#000" fill="none" stroke-width="3" d="m174.62389,664.65544c1.86107,-0.01192 3.72213,-0.02384 5.5832,-0.03576c0.01225,-1.88554 0.0245,-3.77109 0.03676,-5.65663c1.85218,0 3.70435,0 5.55653,0c0,-1.89711 0,-3.79422 0,-5.69134c1.89961,0 3.79921,0 5.69882,0c0,-1.85084 0,-3.70168 0,-5.55252c1.87615,0 3.75231,0 5.62846,0c0,-1.85084 0,-3.70168 0,-5.55252c2.79078,0 5.58156,0 8.37234,0c0,0.92542 0,1.85084 0,2.77626c-1.85271,0 -3.7054,0 -5.55811,0c0,1.87398 0,3.74795 0,5.62193c-1.87615,0 -3.75231,0 -5.62846,0c0,1.87398 0,3.74795 0,5.62193c-1.87616,0 -3.75231,0 -5.62846,0c0,1.87398 0,3.74795 0,5.62193c-1.89961,0 -3.79921,0 -5.69882,0c0,1.89711 0,3.79422 0,5.69134c-2.81423,0 -5.62846,0 -8.4427,0c0.12546,-0.91964 -0.21388,-1.95663 0.08044,-2.84461l0,0l0,-0.00001z" id="svg_136"/>
  <line stroke="#000" fill="none" stroke-width="3" x1="187.66667" y1="530.000004" x2="187.66667" y2="587.000004" id="svg_140"/>
  <line fill="none" stroke-width="3" x1="175.66667" y1="563.250015" x2="175.66667" y2="587.500011" id="svg_141" stroke="#000"/>
  <text stroke="#000" fill="#000000" stroke-width="0" x="276.931258" y="249.399996" id="svg_1" font-size="36" font-family="Helvetica, Arial, sans-serif" text-anchor="start" xml:space="preserve">Корпус 2</text>
  <text stroke="#000" fill="#000000" stroke-width="0" x="291.956256" y="306.399984" id="svg_4" font-size="36" font-family="Helvetica, Arial, sans-serif" text-anchor="start" xml:space="preserve" font-weight="normal" font-style="normal">Этаж 2</text>
  <path stroke="#000" fill="none" stroke-width="3" d="m596.62124,80.14198c1.82104,-0.00988 3.64209,-0.01976 5.46313,-0.02965c0.01199,-1.56301 0.02398,-3.12603 0.03597,-4.68904c1.81235,0 3.62469,0 5.43704,0c0,-1.5726 0,-3.14521 0,-4.71781c1.85876,0 3.71751,0 5.57627,0c0,-1.53425 0,-3.06849 0,-4.60274c1.83581,0 3.67161,0 5.50742,0c0,-1.53425 0,-3.06849 0,-4.60274c2.73076,0 5.46153,0 8.19229,0c0,0.76712 0,1.53425 0,2.30137c-1.81286,0 -3.62572,0 -5.43858,0c0,1.55343 0,3.10685 0,4.66028c-1.83581,0 -3.67161,0 -5.50742,0c0,1.55343 0,3.10685 0,4.66028c-1.83581,0 -3.67161,0 -5.50742,0c0,1.55343 0,3.10685 0,4.66027c-1.85876,0 -3.71751,0 -5.57627,0c0,1.5726 0,3.14521 0,4.71781c-2.75371,0 -5.50742,0 -8.26114,0c0.12276,-0.76233 -0.20928,-1.62194 0.07871,-2.35802l0,0l0,-0.00001z" id="svg_3"/>
  <line stroke="#000" fill="none" stroke-width="3" x1="590.500001" y1="254.667857" x2="641.500032" y2="254.667857" id="svg_53"/>
  <line stroke="#000" fill="none" stroke-width="3" x1="499" y1="434.668239" x2="559" y2="434.668239" id="svg_54"/>
  <line stroke="#000" fill="none" stroke-width="3" x1="499" y1="224.666859" x2="559.666625" y2="224.666859" id="svg_55"/>
  <line stroke="#000" fill="none" stroke-width="3" x1="248.250004" y1="521.333338" x2="248.250004" y2="587.166666" id="svg_81"/>
  <line fill="none" stroke-width="3" x1="237" y1="585.666674" x2="248.250014" y2="585.666674" id="svg_88" stroke="#000"/>
  <line fill="none" stroke-width="3" x1="444.830989" y1="520.166671" x2="444.830989" y2="586.999996" id="svg_91" stroke="#000"/>
  <line stroke="#000" fill="none" stroke-width="3" x1="414.83099" y1="521.000007" x2="414.83099" y2="576" id="svg_92"/>
  <line stroke="#000" fill="none" stroke-width="3" x1="413.330602" y1="564.500007" x2="425" y2="564.500007" id="svg_93"/>
  <line stroke="#000" fill="none" stroke-width="3" x1="434" y1="564.500007" x2="446.333328" y2="564.500007" id="svg_95"/>
  <line stroke="#000" fill="none" stroke-width="3" x1="534.496831" y1="541.667388" x2="559.831927" y2="541.667388" id="svg_96"/>
  <line fill="none" stroke-width="3" x1="558.33191" y1="532" x2="558.33191" y2="542.500008" id="svg_97" stroke="#000"/>
  <line stroke="#000" fill="none" stroke-width="3" x1="513.668001" y1="532.165964" x2="513.668001" y2="587.165964" id="svg_105"/>
  <text stroke="#000" xml:space="preserve" text-anchor="start" font-family="Helvetica, Arial, sans-serif" font-size="18" id="svg_138" y="552.999991" x="167.999996" fill-opacity="null" stroke-opacity="null" stroke-width="0" fill="#000000">Ж</text>
  <text stroke="#000" transform="rotate(-90 478.47619628906256,300.39843750000006) " xml:space="preserve" text-anchor="start" font-family="Helvetica, Arial, sans-serif" font-size="22" id="svg_153" y="307.998436" x="436.999266" fill-opacity="null" stroke-opacity="null" stroke-width="0" fill="#000000">Деканат</text>
  <text style="cursor: move;" stroke="#000" transform="rotate(-90 593.3501586914062,493.3999633789062) " xml:space="preserve" text-anchor="start" font-family="Helvetica, Arial, sans-serif" font-size="22" id="svg_154" y="500.999994" x="574.999996" fill-opacity="null" stroke-opacity="null" stroke-width="0" fill="#000000">234</text>
  <line fill="none" stroke-width="3" stroke-opacity="null" fill-opacity="null" x1="578.699687" y1="464.599756" x2="595" y2="464.599756" id="svg_5" stroke-linejoin="null" stroke-linecap="null" stroke="#000"/>
  <line fill="none" stroke-width="3" x1="580" y1="532" x2="580" y2="610" id="svg_6" stroke="#000"/>
  <line fill="none" stroke-width="3" x1="578.583328" y1="585.666674" x2="680.24998" y2="585.666674" id="svg_7" stroke="#000"/>
  <line stroke="#000" fill="none" stroke-width="3" x1="660.167987" y1="532.165964" x2="660.167987" y2="587.165964" id="svg_8"/>
  <line fill="none" stroke-width="3" x1="469.500001" y1="585.666674" x2="504" y2="585.666674" id="svg_9" stroke="#000"/>
  <line fill="none" stroke-width="3" x1="483.999958" y1="564.500007" x2="525.33332" y2="564.500007" id="svg_10" stroke="#000"/>
  <line fill="none" stroke-width="3" x1="524.668" y1="562.915956" x2="524.668" y2="587.165959" id="svg_12" stroke="#000"/>
  <line fill="none" stroke-width="3" x1="420.500049" y1="641.666713" x2="420.166858" y2="685.166678" id="svg_13" stroke="#000"/>
  <line fill="none" stroke-width="3" x1="418.750072" y1="621.666674" x2="486.000003" y2="621.666674" id="svg_14" stroke="#000"/>
  <line fill="none" stroke-width="3" x1="382" y1="621.666674" x2="409" y2="621.666674" id="svg_15" stroke="#000"/>
  <line stroke="#000" fill="none" stroke-width="3" x1="307.500042" y1="620.416673" x2="307.500042" y2="685.416673" id="svg_16"/>
  <line fill="none" stroke-width="3" x1="335" y1="622.000004" x2="373" y2="622.000004" id="svg_17" stroke="#000"/>
  <line fill="none" stroke-width="3" x1="174.330648" y1="564.500007" x2="188.000045" y2="564.500007" id="svg_18" stroke="#000"/>
  <line fill="none" stroke-width="3" x1="258" y1="585.666674" x2="306.750011" y2="585.666674" id="svg_19" stroke="#000"/>
  <line stroke="#000" fill="none" stroke-width="3" x1="293.249982" y1="521.333338" x2="293.249982" y2="587.166666" id="svg_20"/>
  <line stroke="#000" fill="none" stroke-width="3" x1="330.499964" y1="521.333338" x2="330.499964" y2="587.166666" id="svg_21"/>
  <line fill="none" stroke-width="3" x1="317" y1="585.666674" x2="330.499994" y2="585.666674" id="svg_22" stroke="#000"/>
  <line fill="none" stroke-width="3" x1="499.499999" y1="374.667191" x2="547.750024" y2="374.667191" id="svg_23" stroke="#000"/>
  <line fill="none" stroke-width="3" x1="499" y1="404.667715" x2="547.750025" y2="404.667715" id="svg_24" stroke="#000"/>
  <line stroke="#000" fill="none" stroke-width="3" x1="499" y1="284.667752" x2="549" y2="284.667752" id="svg_25"/>
  <line stroke="#000" fill="none" stroke-width="3" x1="499" y1="254.667229" x2="549" y2="254.667229" id="svg_26"/>
  <line stroke="#000" fill="none" stroke-width="3" x1="591" y1="164.666374" x2="640" y2="164.666374" id="svg_27"/>
  <line fill="none" stroke-width="3" x1="580.166696" y1="119.667236" x2="641.583329" y2="119.667236" id="svg_28" stroke="#000"/>
  <line fill="none" stroke-width="3" x1="533.333382" y1="235" x2="533.333382" y2="256.000421" id="svg_29" stroke="#000"/>
  <line fill="none" stroke-width="3" x1="581.153768" y1="193" x2="580.749998" y2="274.999938" id="svg_30" stroke="#000"/>
  <line fill="none" stroke-width="3" x1="606.833228" y1="164.250148" x2="606.833228" y2="184" id="svg_31" stroke="#000"/>
  <text stroke="#000" xml:space="preserve" text-anchor="start" font-family="Helvetica, Arial, sans-serif" font-size="22" id="svg_35" y="550.999975" x="490.000196" fill-opacity="null" stroke-opacity="null" stroke-width="0" fill="#000000">М</text>
  <line stroke="#000" fill="none" stroke-width="3" x1="164.999706" y1="464.666674" x2="164.999706" y2="520.666674" id="svg_38"/>
  <line stroke="#000" fill="none" stroke-width="3" x1="94.999706" y1="464.666674" x2="94.999706" y2="520.666674" id="svg_39"/>
  <line stroke="#000" fill="none" stroke-width="3" x1="59.999696" y1="57.000004" x2="59.999696" y2="466.000004" id="svg_40"/>
  <line stroke="#000" fill="none" stroke-width="3" x1="58.333026" y1="55.666664" x2="201.666376" y2="55.666664" id="svg_41"/>
  <line stroke="#000" fill="none" stroke-width="3" x1="199.999706" y1="57.000004" x2="199.999706" y2="466.000004" id="svg_46"/>
  <line stroke="#000" fill="none" stroke-width="3" x1="58.999696" y1="464.666664" x2="119.749709" y2="464.666664" id="svg_47"/>
  <line stroke="#000" fill="none" stroke-width="3" x1="58.499709" y1="149.416905" x2="108" y2="149.416915" id="svg_50"/>
  <line stroke="#000" fill="none" stroke-width="3" x1="119.083035" y1="475.000004" x2="119.083035" y2="523.207514" id="svg_51"/>
  <line stroke="#000" fill="none" stroke-width="3" x1="140.207886" y1="463.916682" x2="139.999706" y2="512.374184" id="svg_52"/>
  <line stroke="#000" fill="none" stroke-width="3" x1="58.999706" y1="314.668276" x2="118.499697" y2="314.668276" id="svg_56"/>
  <line stroke="#000" fill="none" stroke-width="3" x1="58.999706" y1="374.666731" x2="119.666331" y2="374.666731" id="svg_64"/>
  <line stroke="#000" fill="none" stroke-width="3" x1="139.166377" y1="325.332995" x2="200.833037" y2="325.332995" id="svg_71"/>
  <line stroke="#000" fill="none" stroke-width="3" x1="118.333036" y1="415" x2="118.333036" y2="465.499992" id="svg_80"/>
  <line stroke="#000" fill="none" stroke-width="3" x1="140.486806" y1="335" x2="140.486806" y2="405.916697" id="svg_82"/>
  <line stroke="#000" fill="none" stroke-width="3" x1="118.333036" y1="313.249942" x2="118.333036" y2="333.5" id="svg_83"/>
  <line stroke="#000" fill="none" stroke-width="3" x1="58.999706" y1="405.168262" x2="119.999705" y2="405.168262" id="svg_89"/>
  <line stroke="#000" fill="none" stroke-width="3" x1="139.499929" y1="224.666859" x2="200.166554" y2="224.666859" id="svg_90"/>
  <text stroke="#000" transform="rotate(-90 107.34987640380861,492.3999328613281) " xml:space="preserve" text-anchor="start" font-family="Helvetica, Arial, sans-serif" font-size="22" id="svg_94" y="500.00001" x="88.999727" fill-opacity="null" stroke-opacity="null" stroke-width="0" fill="#000000">217</text>
  <text style="cursor: move;" stroke="#000" transform="rotate(-90 312.94750976562517,552.4003906250001) " xml:space="preserve" text-anchor="start" font-family="Helvetica, Arial, sans-serif" font-size="22" id="svg_98" y="560.000478" x="287.000948" fill-opacity="null" stroke-opacity="null" stroke-width="0" fill="#000000">223А</text>
  <line fill="none" stroke-width="3" x1="59.499705" y1="344.667214" x2="107.749731" y2="344.667214" id="svg_100" stroke="#000"/>
  <line fill="none" stroke-width="3" x1="58.999706" y1="434.667692" x2="107.749731" y2="434.667692" id="svg_101" stroke="#000"/>
  <line stroke="#000" fill="none" stroke-width="3" x1="140.653475" y1="148" x2="140.5" y2="215" id="svg_124"/>
  <line stroke="#000" fill="none" stroke-width="3" x1="164" y1="622.000004" x2="215" y2="622.000004" id="svg_11"/>
  <line stroke="#000" fill="none" stroke-width="3" x1="119.5" y1="532" x2="119.5" y2="611.00005" id="svg_86"/>
  <line stroke="#000" fill="none" stroke-width="3" x1="58.999646" y1="119.417933" x2="118.749661" y2="119.417933" id="svg_133"/>
  <line stroke="#000" fill="none" stroke-width="3" x1="117.75" y1="54.50024" x2="117.75" y2="80.000239" id="svg_134"/>
  <line stroke="#000" fill="none" stroke-width="3" x1="58.749645" y1="89.918502" x2="118.999644" y2="89.918502" id="svg_137"/>
  <line stroke="#000" fill="none" stroke-width="3" x1="118.333036" y1="342.999918" x2="118.333036" y2="395.25" id="svg_139"/>
  <line stroke="#000" fill="none" stroke-width="3" x1="138.749708" y1="464.666664" x2="200.499705" y2="464.666674" id="svg_142"/>
  <line stroke="#000" fill="none" stroke-width="3" x1="139.249646" y1="434.667692" x2="200.249659" y2="434.667692" id="svg_143"/>
  <line stroke="#000" fill="none" stroke-width="3" x1="140.333019" y1="415" x2="140.333019" y2="455.25" id="svg_144"/>
  <line stroke="#000" fill="none" stroke-width="3" x1="138.999645" y1="405.168262" x2="199.999644" y2="405.168262" id="svg_145"/>
  <line stroke="#000" fill="none" stroke-width="3" x1="58.999706" y1="224.666859" x2="119.666331" y2="224.666859" id="svg_146"/>
  <line stroke="#000" fill="none" stroke-width="3" x1="140.74971" y1="149.416905" x2="200.499705" y2="149.416915" id="svg_147"/>
  <line stroke="#000" fill="none" stroke-width="3" x1="139.249646" y1="119.417933" x2="200.249659" y2="119.417933" id="svg_148"/>
  <line stroke="#000" fill="none" stroke-width="3" x1="138.999645" y1="89.918502" x2="199.999644" y2="89.918502" id="svg_149"/>
  <line stroke="#000" fill="none" stroke-width="3" x1="117.999706" y1="194.667111" x2="117.999706" y2="305" id="svg_150"/>
  <line stroke="#000" fill="none" stroke-width="3" x1="117.999706" y1="100" x2="117.999706" y2="185" id="svg_151"/>
  <line stroke="#000" fill="none" stroke-width="3" x1="140.5" y1="235" x2="140.5" y2="326.000082" id="svg_152"/>
  <line stroke="#000" fill="none" stroke-width="3" x1="140.5" y1="99.750241" x2="140.5" y2="140.00024" id="svg_155"/>
  <line stroke="#000" fill="none" stroke-width="3" x1="140.5" y1="54.50024" x2="140.5" y2="80.000239" id="svg_156"/>
  <text style="cursor: move;" xml:space="preserve" text-anchor="start" font-family="Helvetica, Arial, sans-serif" font-size="22" id="svg_157" y="644.005279" x="613.502151" fill-opacity="null" stroke-opacity="null" stroke-width="0" stroke="#000" fill="#000000">231</text>
  <text xml:space="preserve" text-anchor="start" font-family="Helvetica, Arial, sans-serif" font-size="22" id="svg_158" y="82.00067" x="152.49837" fill-opacity="null" stroke-opacity="null" stroke-width="0" stroke="#000" fill="#000000">200</text>
  <text style="cursor: move;" xml:space="preserve" text-anchor="start" font-family="Helvetica, Arial, sans-serif" font-size="22" id="svg_159" y="113.000924" x="70.497698" fill-opacity="null" stroke-opacity="null" stroke-width="0" stroke="#000" fill="#000000">203</text>
  <text xml:space="preserve" text-anchor="start" font-family="Helvetica, Arial, sans-serif" font-size="22" id="svg_160" y="143.00117" x="152.49837" fill-opacity="null" stroke-opacity="null" stroke-width="0" stroke="#000" fill="#000000">204</text>
  <text xml:space="preserve" text-anchor="start" font-family="Helvetica, Arial, sans-serif" font-size="22" id="svg_161" y="113.000924" x="152.49837" fill-opacity="null" stroke-opacity="null" stroke-width="0" stroke="#000" fill="#000000">202</text>
  <text xml:space="preserve" text-anchor="start" font-family="Helvetica, Arial, sans-serif" font-size="22" id="svg_162" y="143.00117" x="70.497698" fill-opacity="null" stroke-opacity="null" stroke-width="0" stroke="#000" fill="#000000">205</text>
  <text style="cursor: move;" xml:space="preserve" text-anchor="start" font-family="Helvetica, Arial, sans-serif" font-size="22" id="svg_163" y="192.001572" x="70.497698" fill-opacity="null" stroke-opacity="null" stroke-width="0" stroke="#000" fill="#000000">207</text>
  <text style="cursor: move;" xml:space="preserve" text-anchor="start" font-family="Helvetica, Arial, sans-serif" font-size="22" id="svg_164" y="192.001572" x="152.49837" fill-opacity="null" stroke-opacity="null" stroke-width="0" stroke="#000" fill="#000000">206</text>
  <text xml:space="preserve" text-anchor="start" font-family="Helvetica, Arial, sans-serif" font-size="22" id="svg_165" y="458.003754" x="152.49837" fill-opacity="null" stroke-opacity="null" stroke-width="0" stroke="#000" fill="#000000">216</text>
  <text style="cursor: move;" xml:space="preserve" text-anchor="start" font-family="Helvetica, Arial, sans-serif" font-size="22" id="svg_166" y="280.002294" x="70.497698" fill-opacity="null" stroke-opacity="null" stroke-width="0" stroke="#000" fill="#000000">209</text>
  <text xml:space="preserve" text-anchor="start" font-family="Helvetica, Arial, sans-serif" font-size="22" id="svg_167" y="280.002294" x="152.49837" fill-opacity="null" stroke-opacity="null" stroke-width="0" stroke="#000" fill="#000000">208</text>
  <text xml:space="preserve" text-anchor="start" font-family="Helvetica, Arial, sans-serif" font-size="22" id="svg_168" y="371.00304" x="152.49837" fill-opacity="null" stroke-opacity="null" stroke-width="0" stroke="#000" fill="#000000">210</text>
  <text style="cursor: move;" xml:space="preserve" text-anchor="start" font-family="Helvetica, Arial, sans-serif" font-size="22" id="svg_169" y="428.003508" x="152.49837" fill-opacity="null" stroke-opacity="null" stroke-width="0" stroke="#000" fill="#000000">214</text>
  <text xml:space="preserve" text-anchor="start" font-family="Helvetica, Arial, sans-serif" font-size="22" id="svg_170" y="338.00277" x="71.497706" fill-opacity="null" stroke-opacity="null" stroke-width="0" stroke="#000" fill="#000000">211</text>
  <text style="cursor: move;" xml:space="preserve" text-anchor="start" font-family="Helvetica, Arial, sans-serif" font-size="22" id="svg_171" y="397.003253" x="71.497706" fill-opacity="null" stroke-opacity="null" stroke-width="0" stroke="#000" fill="#000000">213</text>
  <text xml:space="preserve" text-anchor="start" font-family="Helvetica, Arial, sans-serif" font-size="22" id="svg_172" y="428.003508" x="71.497706" fill-opacity="null" stroke-opacity="null" stroke-width="0" stroke="#000" fill="#000000">215</text>
  <text style="cursor: move;" xml:space="preserve" text-anchor="start" font-family="Helvetica, Arial, sans-serif" font-size="22" id="svg_173" y="579.004746" x="55.497575" fill-opacity="null" stroke-opacity="null" stroke-width="0" stroke="#000" fill="#000000">219</text>
  <text stroke="#000" transform="rotate(-90 153.34985351562503,493.39996337890625) " xml:space="preserve" text-anchor="start" font-family="Helvetica, Arial, sans-serif" font-size="22" id="svg_174" y="500.999994" x="134.999702" fill-opacity="null" stroke-opacity="null" stroke-width="0" fill="#000000">218</text>
  <text stroke="#000" transform="rotate(-90 378.3517150878907,654.4012451171875) " xml:space="preserve" text-anchor="start" font-family="Helvetica, Arial, sans-serif" font-size="22" id="svg_175" y="662.001314" x="360.001547" fill-opacity="null" stroke-opacity="null" stroke-width="0" fill="#000000">226</text>
  <text style="cursor: move;" stroke="#000" transform="rotate(-90 272.5633850097658,552.4003906250001) " xml:space="preserve" text-anchor="start" font-family="Helvetica, Arial, sans-serif" font-size="22" id="svg_176" y="560.000478" x="247.00062" fill-opacity="null" stroke-opacity="null" stroke-width="0" fill="#000000">223Б</text>
  <text xml:space="preserve" text-anchor="start" font-family="Helvetica, Arial, sans-serif" font-size="22" id="svg_177" y="662.005427" x="55.497575" fill-opacity="null" stroke-opacity="null" stroke-width="0" stroke="#000" fill="#000000">220</text>
  <text xml:space="preserve" text-anchor="start" font-family="Helvetica, Arial, sans-serif" font-size="22" id="svg_178" y="662.005427" x="259.499248" fill-opacity="null" stroke-opacity="null" stroke-width="0" stroke="#000" fill="#000000">222</text>
  <text style="cursor: move;" stroke="#000" transform="rotate(-90 465.35241699218767,553.4004516601564) " xml:space="preserve" text-anchor="start" font-family="Helvetica, Arial, sans-serif" font-size="22" id="svg_179" y="561.000486" x="447.002261" fill-opacity="null" stroke-opacity="null" stroke-width="0" fill="#000000">229</text>
  <text style="cursor: move;" xml:space="preserve" text-anchor="start" font-family="Helvetica, Arial, sans-serif" font-size="22" id="svg_180" y="146.001195" x="510.501306" fill-opacity="null" stroke-opacity="null" stroke-width="0" stroke="#000" fill="#000000">242</text>
  <text stroke="#000" transform="rotate(-90 231.35049438476577,553.4003906250001) " xml:space="preserve" text-anchor="start" font-family="Helvetica, Arial, sans-serif" font-size="22" id="svg_181" y="561.000486" x="213.000342" fill-opacity="null" stroke-opacity="null" stroke-width="0" fill="#000000">221</text>
  <text stroke="#000" transform="rotate(-90 402.35189819335955,553.4003906250001) " xml:space="preserve" text-anchor="start" font-family="Helvetica, Arial, sans-serif" font-size="22" id="svg_182" y="561.000486" x="384.001744" fill-opacity="null" stroke-opacity="null" stroke-width="0" fill="#000000">227</text>
  <text xml:space="preserve" text-anchor="start" font-family="Helvetica, Arial, sans-serif" font-size="22" id="svg_183" y="662.005427" x="317.499724" fill-opacity="null" stroke-opacity="null" stroke-width="0" stroke="#000" fill="#000000">224</text>
  <text xml:space="preserve" text-anchor="start" font-family="Helvetica, Arial, sans-serif" font-size="22" id="svg_184" y="662.005427" x="434.500683" fill-opacity="null" stroke-opacity="null" stroke-width="0" stroke="#000" fill="#000000">228</text>
  <text xml:space="preserve" text-anchor="start" font-family="Helvetica, Arial, sans-serif" font-size="22" id="svg_185" y="561.004599" x="341.49992" fill-opacity="null" stroke-opacity="null" stroke-width="0" stroke="#000" fill="#000000">225</text>
  <text xml:space="preserve" text-anchor="start" font-family="Helvetica, Arial, sans-serif" font-size="22" id="svg_186" y="561.004599" x="602.502061" fill-opacity="null" stroke-opacity="null" stroke-width="0" stroke="#000" fill="#000000">232</text>
  <text style="cursor: move;" xml:space="preserve" text-anchor="start" font-family="Helvetica, Arial, sans-serif" font-size="22" id="svg_187" y="150.001227" x="592.501979" fill-opacity="null" stroke-opacity="null" stroke-width="0" stroke="#000" fill="#000000">243</text>
  <text stroke="#000" transform="rotate(-90 546.3528442382812,493.30007934570307) " xml:space="preserve" text-anchor="start" font-family="Helvetica, Arial, sans-serif" font-size="22" id="svg_188" y="501.000019" x="528.000012" fill-opacity="null" stroke-opacity="null" stroke-width="0" fill="#000000">233</text>
  <text style="cursor: move;" xml:space="preserve" text-anchor="start" font-family="Helvetica, Arial, sans-serif" font-size="22" id="svg_189" y="457.003746" x="510.501306" fill-opacity="null" stroke-opacity="null" stroke-width="0" stroke="#000" fill="#000000">235</text>
  <text xml:space="preserve" text-anchor="start" font-family="Helvetica, Arial, sans-serif" font-size="22" id="svg_190" y="428.003508" x="592.501979" fill-opacity="null" stroke-opacity="null" stroke-width="0" stroke="#000" fill="#000000">236</text>
  <text xml:space="preserve" text-anchor="start" font-family="Helvetica, Arial, sans-serif" font-size="22" id="svg_191" y="337.002761" x="592.501979" fill-opacity="null" stroke-opacity="null" stroke-width="0" stroke="#000" fill="#000000">239</text>
  <text xml:space="preserve" text-anchor="start" font-family="Helvetica, Arial, sans-serif" font-size="22" id="svg_192" y="277.002269" x="510.501306" fill-opacity="null" stroke-opacity="null" stroke-width="0" stroke="#000" fill="#000000">238</text>
  <text xml:space="preserve" text-anchor="start" font-family="Helvetica, Arial, sans-serif" font-size="22" id="svg_193" y="277.002269" x="592.501979" fill-opacity="null" stroke-opacity="null" stroke-width="0" stroke="#000" fill="#000000">240</text>
  <text xml:space="preserve" text-anchor="start" font-family="Helvetica, Arial, sans-serif" font-size="22" id="svg_194" y="232.0019" x="592.501979" fill-opacity="null" stroke-opacity="null" stroke-width="0" stroke="#000" fill="#000000">241</text>
  <text xml:space="preserve" text-anchor="start" font-family="Helvetica, Arial, sans-serif" font-size="22" id="svg_195" y="428.003508" x="510.501306" fill-opacity="null" stroke-opacity="null" stroke-width="0" stroke="#000" fill="#000000">237</text>
  <line stroke="#ff0000" stroke-linecap="null" stroke-linejoin="null" id="svg_196" y2="654.093232" x2="570.394068" y1="654.093262" x1="534.89443" fill-opacity="null" stroke-width="3" fill="none"/>
  <line stroke="#ff0000" stroke-linecap="null" stroke-linejoin="null" id="svg_197" y2="469.595152" x2="569.394077" y1="655.343231" x1="569.394077" fill-opacity="null" stroke-opacity="null" stroke-width="3" fill="none"/>
  <line stroke-linecap="null" stroke-linejoin="null" id="svg_198" y2="470.545129" x2="578.643981" y1="470.545129" x1="567.894093" fill-opacity="null" stroke-opacity="null" stroke-width="3" stroke="#ff0000" fill="none"/>
 </g>
</svg>